<?xml version="1.0" standalone="no"?>
<!DOCTYPE svg PUBLIC "-//W3C//DTD SVG 20010904//EN"
 "http://www.w3.org/TR/2001/REC-SVG-20010904/DTD/svg10.dtd">
<svg version="1.0" xmlns="http://www.w3.org/2000/svg"
 width="1000.000000pt" height="714.000000pt" viewBox="0 0 1000.000000 714.000000"
 preserveAspectRatio="xMidYMid meet">

<g transform="translate(0.000000,714.000000) scale(0.100000,-0.100000)"
fill="#000000" stroke="none">
<path d="M5405 5673 c-87 -11 -246 -47 -321 -72 l-86 -29 -72 24 c-157 54
-256 68 -471 68 -209 0 -251 -5 -415 -50 -268 -75 -532 -240 -744 -465 -185
-196 -293 -374 -425 -697 -52 -126 -110 -403 -131 -616 -28 -301 11 -634 111
-939 76 -230 257 -562 394 -722 380 -442 857 -711 1425 -801 219 -35 580 -26
801 20 601 126 1142 489 1461 981 319 493 428 992 353 1617 -20 165 -85 393
-160 563 -66 150 -117 242 -212 386 -52 79 -194 238 -282 316 -258 228 -532
360 -853 408 -88 14 -297 18 -373 8z m375 -569 c312 -69 616 -338 790 -699
117 -244 170 -481 170 -767 0 -237 -25 -385 -102 -603 -126 -352 -410 -694
-741 -889 -101 -60 -293 -140 -420 -175 -262 -73 -560 -83 -827 -26 -156 33
-363 110 -500 187 -170 95 -385 284 -510 449 -55 72 -170 251 -170 264 0 3
-12 29 -26 58 -59 120 -116 307 -140 462 -18 117 -23 345 -11 455 49 412 213
762 474 1011 135 128 284 215 443 258 85 22 200 37 200 25 0 -4 -22 -33 -48
-63 -133 -156 -231 -357 -284 -585 -30 -130 -36 -364 -13 -477 73 -361 338
-642 700 -741 109 -30 315 -35 435 -10 358 74 639 335 734 682 99 359 -28 856
-291 1141 -29 31 -53 60 -53 64 0 9 107 -3 190 -21z m-667 -213 c96 -92 152
-169 208 -286 156 -325 117 -634 -98 -772 -149 -95 -350 -79 -478 39 -67 61
-102 119 -127 207 -73 263 87 675 335 864 58 44 61 43 160 -52z"/>
</g>
</svg>
